<?xml version="1.0" encoding="UTF-8"?>
<svg id="_レイヤー_1" data-name="レイヤー_1" xmlns="http://www.w3.org/2000/svg" version="1.1" viewBox="0 0 900 640">
  <!-- Generator: Adobe Illustrator 30.4.0, SVG Export Plug-In . SVG Version: 2.1.4 Build 226)  -->
  <defs>
    <style>
      .st0, .st1, .st2, .st3 {
        fill: none;
      }

      .st0, .st2 {
        stroke: #c0392b;
        stroke-width: 5px;
      }

      .st4, .st5, .st6 {
        fill: #444;
      }

      .st7 {
        font-size: 20px;
      }

      .st7, .st8, .st5, .st9, .st10, .st11, .st12, .st6, .st13 {
        isolation: isolate;
      }

      .st7, .st8, .st12 {
        fill: #222;
      }

      .st8 {
        font-size: 10.83px;
      }

      .st8, .st10, .st12, .st14 {
        font-family: KozGoPr6N-Regular-83pv-RKSJ-H, 'Kozuka Gothic Pr6N';
      }

      .st5, .st15, .st6 {
        font-family: Helvetica, Helvetica;
      }

      .st5, .st10, .st11 {
        font-size: 12px;
      }

      .st16, .st9 {
        fill: #c0392b;
      }

      .st9, .st17 {
        font-family: Helvetica-Bold, Helvetica;
        font-weight: 700;
      }

      .st9, .st12, .st6 {
        font-size: 11px;
      }

      .st1 {
        stroke: #9aa6b2;
      }

      .st1, .st3 {
        stroke-width: 2px;
      }

      .st2 {
        stroke-linecap: round;
      }

      .st10, .st11 {
        fill: #333;
      }

      .st3 {
        stroke: #444;
      }

      .st18 {
        fill: #fbfbf7;
      }

      .st19 {
        fill: #37495e;
      }

      .st13 {
        fill: #555;
        font-size: 13px;
      }
    </style>
  </defs>
  <rect class="st18" y="0" width="900" height="640"/>
  <text class="st7" transform="translate(30.42 28.58)"><tspan class="st14" x="0" y="0">入力例</tspan><tspan class="st17" x="60" y="0">1 </tspan><tspan class="st14" x="76.68" y="0">の路線ネットワーク模式図（多摩地域・地理準拠配置）</tspan></text>
  <text class="st13" transform="translate(31.16 47.36)"><tspan class="st14" x="0" y="0">辺のラベルは所要時間</tspan><tspan class="st15" x="130" y="0">[</tspan><tspan class="st14" x="133.61" y="0">分</tspan><tspan class="st15" x="146.61" y="0">]</tspan><tspan class="st14" x="150.22" y="0">。上が北。座標は実際の駅位置の概略に基づいて配置。</tspan></text>
  <g>
    <line class="st3" x1="855" y1="120" x2="855" y2="90"/>
    <polygon class="st4" points="855 83 850 93 860 93 855 83"/>
    <text class="st5" transform="translate(850.67 137)"><tspan x="0" y="0">N</tspan></text>
  </g>
  <g>
    <line class="st0" x1="620" y1="560" x2="654" y2="560"/>
    <text class="st11" transform="translate(662 564)"><tspan class="st14" x="0" y="0">最短経路</tspan><tspan class="st15" x="48" y="0" xml:space="preserve"> (17</tspan><tspan class="st14" x="68.68" y="0">分</tspan><tspan class="st15" x="80.68" y="0">)</tspan></text>
    <line class="st1" x1="620" y1="582" x2="654" y2="582"/>
    <text class="st10" transform="translate(662 586)"><tspan x="0" y="0">その他の路線</tspan></text>
  </g>
  <g>
    <line class="st1" x1="590.52" y1="161.11" x2="486.75" y2="203.84"/>
    <line class="st1" x1="598.5" y1="181.86" x2="493.92" y2="225.83"/>
    <line class="st1" x1="484.5" y1="206" x2="406.8" y2="227.9"/>
    <line class="st1" x1="484.5" y1="206" x2="458.6" y2="140.2"/>
    <line class="st1" x1="484.5" y1="206" x2="493.12" y2="227.9"/>
    <line class="st1" x1="590.52" y1="161.11" x2="599.14" y2="183"/>
    <line class="st1" x1="406.8" y1="227.9" x2="277.3" y2="241.1"/>
    <line class="st1" x1="134.8" y1="341.9" x2="70" y2="302.5"/>
    <line class="st1" x1="136.2" y1="345.28" x2="136.2" y2="418.72"/>
    <line class="st1" x1="70" y1="302.5" x2="100.2" y2="210.4"/>
    <line class="st1" x1="100.2" y1="210.4" x2="117.5" y2="131.4"/>
    <line class="st1" x1="117.5" y1="131.4" x2="108.9" y2="70"/>
    <line class="st1" x1="136.2" y1="428.82" x2="136.2" y2="513.13"/>
    <line class="st1" x1="458.6" y1="140.2" x2="415.62" y2="93"/>
    <line class="st1" x1="598.5" y1="181.86" x2="830" y2="302.5"/>
    <line class="st1" x1="830" y1="302.5" x2="570.9" y2="570"/>
  </g>
  <g>
    <line class="st2" x1="277.3" y1="241.1" x2="186.6" y2="276.1"/>
    <line class="st2" x1="186.6" y1="276.1" x2="134.8" y2="341.9"/>
    <line class="st2" x1="134.8" y1="341.9" x2="260" y2="442.8"/>
    <line class="st2" x1="260" y1="442.8" x2="376.6" y2="491.1"/>
    <line class="st2" x1="376.6" y1="491.1" x2="437" y2="548.1"/>
    <line class="st2" x1="437" y1="548.1" x2="570.9" y2="570"/>
  </g>
  <g>
    <text class="st6" transform="translate(530.4 181.85)"><tspan x="0" y="0">3</tspan></text>
    <text class="st6" transform="translate(586.16 176.85)"><tspan x="0" y="0">4</tspan></text>
    <text class="st6" transform="translate(441.94 213)"><tspan x="0" y="0">2</tspan></text>
    <text class="st6" transform="translate(472.94 168)"><tspan x="0" y="0">7</tspan></text>
    <text class="st6" transform="translate(481.11 222.32)"><tspan x="0" y="0">5</tspan></text>
    <text class="st6" transform="translate(338.94 229)"><tspan x="0" y="0">2</tspan></text>
    <text class="st6" transform="translate(94.94 318)"><tspan x="0" y="0">3</tspan></text>
    <text class="st6" transform="translate(135.94 382)"><tspan x="0" y="0">3</tspan></text>
    <text class="st6" transform="translate(76.94 252)"><tspan x="0" y="0">3</tspan></text>
    <text class="st6" transform="translate(99.94 167)"><tspan x="0" y="0">2</tspan></text>
    <text class="st6" transform="translate(104.94 98)"><tspan x="0" y="0">3</tspan></text>
    <text class="st6" transform="translate(138.57 470.97)"><tspan x="0" y="0">3</tspan></text>
    <text class="st6" transform="translate(428.07 123.82)"><tspan x="0" y="0">3</tspan></text>
    <text class="st6" transform="translate(550 213)"><tspan x="0" y="0">3</tspan></text>
    <text class="st6" transform="translate(702.46 252.21)"><tspan x="0" y="0">9</tspan></text>
    <text class="st6" transform="translate(699.29 445)"><tspan x="0" y="0">11</tspan></text>
    <text class="st9" transform="translate(223.94 252)"><tspan x="0" y="0">2</tspan></text>
    <text class="st9" transform="translate(146.94 304)"><tspan x="0" y="0">3</tspan></text>
    <text class="st9" transform="translate(183.24 395.93)"><tspan x="0" y="0">3</tspan></text>
    <text class="st9" transform="translate(320.94 462)"><tspan x="0" y="0">3</tspan></text>
    <text class="st9" transform="translate(409.94 514)"><tspan x="0" y="0">3</tspan></text>
    <text class="st9" transform="translate(506.94 553)"><tspan x="0" y="0">3</tspan></text>
  </g>
  <g>
    <circle class="st16" cx="277.3" cy="241.1" r="6"/>
    <text class="st12" transform="translate(238.79 232)"><tspan x="0" y="0">南大沢</tspan></text>
  </g>
  <circle class="st19" cx="598.5" cy="181.86" r="5"/>
  <circle class="st19" cx="484.26" cy="205.4" r="5"/>
  <text class="st12" transform="translate(586.44 161.11)"><tspan x="0" y="0">　京王永山</tspan></text>
  <text/>
  <text/>
  <text/>
  <text/>
  <text class="st12" transform="translate(484.26 192.8)"><tspan x="0" y="0">京王多摩センター</tspan></text>
  <g>
    <circle class="st19" cx="406.8" cy="227.9" r="5"/>
    <text class="st12" transform="translate(367.67 246)"><tspan x="0" y="0">京王堀之内</tspan></text>
  </g>
  <g>
    <circle class="st16" cx="186.6" cy="276.1" r="6"/>
    <text class="st12" transform="translate(158.87 267)"><tspan x="0" y="0">多摩境</tspan></text>
  </g>
  <g>
    <ellipse class="st16" cx="136.2" cy="341.9" rx="5.6" ry="6"/>
    <text class="st12" transform="translate(107.4 346.82) scale(.93 1)"><tspan x="0" y="0">橋本</tspan></text>
  </g>
  <g>
    <ellipse class="st19" cx="72.2" cy="304.71" rx="5" ry="4.92"/>
    <text class="st8" transform="translate(56.31 295.37) scale(1.02 1)"><tspan x="0" y="0">相原</tspan></text>
  </g>
  <g>
    <circle class="st19" cx="100.2" cy="210.4" r="5"/>
    <text class="st12" transform="translate(107 207)"><tspan x="0" y="0">八王子みなみの</tspan></text>
  </g>
  <g>
    <circle class="st19" cx="117.5" cy="131.4" r="5"/>
    <text class="st12" transform="translate(124 128)"><tspan x="0" y="0">片倉</tspan></text>
  </g>
  <g>
    <circle class="st19" cx="108.9" cy="70" r="5"/>
    <text class="st12" transform="translate(117.5 75)"><tspan x="0" y="0">八王子</tspan></text>
  </g>
  <g>
    <circle class="st16" cx="260" cy="442.8" r="6"/>
    <text class="st12" transform="translate(254 432.6)"><tspan x="0" y="0">相模原</tspan></text>
  </g>
  <g>
    <text/>
    <text class="st12" transform="translate(339.28 506.45)"><tspan x="0" y="0">淵野辺</tspan></text>
  </g>
  <g>
    <circle class="st16" cx="437.11" cy="548.2" r="6"/>
    <circle class="st16" cx="376.6" cy="491.1" r="6"/>
    <text class="st12" transform="translate(439.6 537.63)"><tspan x="0" y="0">古淵</tspan></text>
  </g>
  <g>
    <circle class="st16" cx="570.9" cy="570" r="6"/>
    <text class="st12" transform="translate(578 574)"><tspan x="0" y="0">町田</tspan></text>
  </g>
  <circle class="st19" cx="133.57" cy="423.82" r="5"/>
  <text class="st12" transform="translate(90.16 428.82)"><tspan x="0" y="0">南橋本</tspan></text>
  <g>
    <circle class="st19" cx="136.2" cy="513.13" r="5"/>
    <text class="st12" transform="translate(142.7 515.73)"><tspan x="0" y="0">上溝</tspan></text>
  </g>
  <g>
    <circle class="st19" cx="458.6" cy="140.2" r="5"/>
    <text class="st12" transform="translate(465 137)"><tspan x="0" y="0">松が谷</tspan></text>
  </g>
  <g>
    <circle class="st19" cx="415.62" cy="93" r="5"/>
    <text class="st12" transform="translate(361.09 98)"><tspan x="0" y="0">中央大学</tspan></text>
  </g>
  <g>
    <circle class="st19" cx="493.12" cy="227.9" r="5"/>
    <text class="st12" transform="translate(499.22 245)"><tspan x="0" y="0">小田急多摩センター</tspan></text>
  </g>
  <g>
    <text/>
    <text class="st12" transform="translate(594.7 201)"><tspan x="0" y="0">小田急永山</tspan></text>
    <text/>
    <text/>
    <text/>
    <text/>
  </g>
  <g>
    <circle class="st19" cx="830" cy="302.5" r="5"/>
    <text class="st12" transform="translate(820.78 291.25)"><tspan x="0" y="0">新百合ヶ丘</tspan></text>
  </g>
  <text/>
  <text/>
  <circle class="st19" cx="590.89" cy="162.04" r="5"/>
  <text/>
  <text/>
</svg>