<?xml version="1.0" encoding="utf-8" standalone="no"?>
<!DOCTYPE svg PUBLIC "-//W3C//DTD SVG 1.1//EN"
  "http://www.w3.org/Graphics/SVG/1.1/DTD/svg11.dtd">
<svg xmlns:xlink="http://www.w3.org/1999/xlink" width="460.8pt" height="345.6pt" viewBox="0 0 460.8 345.6" xmlns="http://www.w3.org/2000/svg" version="1.1">
 <metadata>
  <rdf:RDF xmlns:dc="http://purl.org/dc/elements/1.1/" xmlns:cc="http://creativecommons.org/ns#" xmlns:rdf="http://www.w3.org/1999/02/22-rdf-syntax-ns#">
   <cc:Work>
    <dc:type rdf:resource="http://purl.org/dc/dcmitype/StillImage"/>
    <dc:date>2026-06-05T13:53:17.953802</dc:date>
    <dc:format>image/svg+xml</dc:format>
    <dc:creator>
     <cc:Agent>
      <dc:title>Matplotlib v3.9.4, https://matplotlib.org/</dc:title>
     </cc:Agent>
    </dc:creator>
   </cc:Work>
  </rdf:RDF>
 </metadata>
 <defs>
  <style type="text/css">*{stroke-linejoin: round; stroke-linecap: butt}</style>
 </defs>
 <g id="figure_1">
  <g id="patch_1">
   <path d="M 0 345.6 
L 460.8 345.6 
L 460.8 0 
L 0 0 
z
" style="fill: #ffffff"/>
  </g>
  <g id="axes_1">
   <g id="patch_2">
    <path d="M 57.6 291.982132 
L 414.72 291.982132 
L 414.72 57.073868 
L 57.6 57.073868 
z
" style="fill: #ffffff"/>
   </g>
   <g id="PathCollection_1">
    <defs>
     <path id="m533c2c8548" d="M 0 0.5 
C 0.132602 0.5 0.25979 0.447317 0.353553 0.353553 
C 0.447317 0.25979 0.5 0.132602 0.5 0 
C 0.5 -0.132602 0.447317 -0.25979 0.353553 -0.353553 
C 0.25979 -0.447317 0.132602 -0.5 0 -0.5 
C -0.132602 -0.5 -0.25979 -0.447317 -0.353553 -0.353553 
C -0.447317 -0.25979 -0.5 -0.132602 -0.5 0 
C -0.5 0.132602 -0.447317 0.25979 -0.353553 0.353553 
C -0.25979 0.447317 -0.132602 0.5 0 0.5 
z
" style="stroke: #1f77b4"/>
    </defs>
    <g clip-path="url(#p8d1fc11f50)">
     <use xlink:href="#m533c2c8548" x="73.832727" y="226.832244" style="fill: #1f77b4; stroke: #1f77b4"/>
     <use xlink:href="#m533c2c8548" x="76.011617" y="228.989345" style="fill: #1f77b4; stroke: #1f77b4"/>
     <use xlink:href="#m533c2c8548" x="78.190506" y="231.102868" style="fill: #1f77b4; stroke: #1f77b4"/>
     <use xlink:href="#m533c2c8548" x="80.369396" y="233.172813" style="fill: #1f77b4; stroke: #1f77b4"/>
     <use xlink:href="#m533c2c8548" x="82.548286" y="235.19918" style="fill: #1f77b4; stroke: #1f77b4"/>
     <use xlink:href="#m533c2c8548" x="84.727175" y="237.181969" style="fill: #1f77b4; stroke: #1f77b4"/>
     <use xlink:href="#m533c2c8548" x="86.906065" y="239.121181" style="fill: #1f77b4; stroke: #1f77b4"/>
     <use xlink:href="#m533c2c8548" x="89.084954" y="241.016815" style="fill: #1f77b4; stroke: #1f77b4"/>
     <use xlink:href="#m533c2c8548" x="91.263844" y="242.868871" style="fill: #1f77b4; stroke: #1f77b4"/>
     <use xlink:href="#m533c2c8548" x="93.442733" y="244.67735" style="fill: #1f77b4; stroke: #1f77b4"/>
     <use xlink:href="#m533c2c8548" x="95.621623" y="246.44225" style="fill: #1f77b4; stroke: #1f77b4"/>
     <use xlink:href="#m533c2c8548" x="97.800513" y="248.163573" style="fill: #1f77b4; stroke: #1f77b4"/>
     <use xlink:href="#m533c2c8548" x="99.979402" y="249.841318" style="fill: #1f77b4; stroke: #1f77b4"/>
     <use xlink:href="#m533c2c8548" x="102.158292" y="251.475485" style="fill: #1f77b4; stroke: #1f77b4"/>
     <use xlink:href="#m533c2c8548" x="104.337181" y="253.066074" style="fill: #1f77b4; stroke: #1f77b4"/>
     <use xlink:href="#m533c2c8548" x="106.516071" y="254.613086" style="fill: #1f77b4; stroke: #1f77b4"/>
     <use xlink:href="#m533c2c8548" x="108.69496" y="256.11652" style="fill: #1f77b4; stroke: #1f77b4"/>
     <use xlink:href="#m533c2c8548" x="110.87385" y="257.576376" style="fill: #1f77b4; stroke: #1f77b4"/>
     <use xlink:href="#m533c2c8548" x="113.052739" y="258.992654" style="fill: #1f77b4; stroke: #1f77b4"/>
     <use xlink:href="#m533c2c8548" x="115.231629" y="260.365354" style="fill: #1f77b4; stroke: #1f77b4"/>
     <use xlink:href="#m533c2c8548" x="117.410519" y="261.694477" style="fill: #1f77b4; stroke: #1f77b4"/>
     <use xlink:href="#m533c2c8548" x="119.589408" y="262.980022" style="fill: #1f77b4; stroke: #1f77b4"/>
     <use xlink:href="#m533c2c8548" x="121.768298" y="264.221989" style="fill: #1f77b4; stroke: #1f77b4"/>
     <use xlink:href="#m533c2c8548" x="123.947187" y="265.420378" style="fill: #1f77b4; stroke: #1f77b4"/>
     <use xlink:href="#m533c2c8548" x="126.126077" y="266.57519" style="fill: #1f77b4; stroke: #1f77b4"/>
     <use xlink:href="#m533c2c8548" x="128.304966" y="267.686423" style="fill: #1f77b4; stroke: #1f77b4"/>
     <use xlink:href="#m533c2c8548" x="130.483856" y="268.754079" style="fill: #1f77b4; stroke: #1f77b4"/>
     <use xlink:href="#m533c2c8548" x="132.662746" y="269.778157" style="fill: #1f77b4; stroke: #1f77b4"/>
     <use xlink:href="#m533c2c8548" x="134.841635" y="270.758658" style="fill: #1f77b4; stroke: #1f77b4"/>
     <use xlink:href="#m533c2c8548" x="137.020525" y="271.69558" style="fill: #1f77b4; stroke: #1f77b4"/>
     <use xlink:href="#m533c2c8548" x="139.199414" y="272.588925" style="fill: #1f77b4; stroke: #1f77b4"/>
     <use xlink:href="#m533c2c8548" x="141.378304" y="273.438692" style="fill: #1f77b4; stroke: #1f77b4"/>
     <use xlink:href="#m533c2c8548" x="143.557193" y="274.244881" style="fill: #1f77b4; stroke: #1f77b4"/>
     <use xlink:href="#m533c2c8548" x="145.736083" y="275.007492" style="fill: #1f77b4; stroke: #1f77b4"/>
     <use xlink:href="#m533c2c8548" x="147.914973" y="275.726526" style="fill: #1f77b4; stroke: #1f77b4"/>
     <use xlink:href="#m533c2c8548" x="150.093862" y="276.401982" style="fill: #1f77b4; stroke: #1f77b4"/>
     <use xlink:href="#m533c2c8548" x="152.272752" y="277.03386" style="fill: #1f77b4; stroke: #1f77b4"/>
     <use xlink:href="#m533c2c8548" x="154.451641" y="277.62216" style="fill: #1f77b4; stroke: #1f77b4"/>
     <use xlink:href="#m533c2c8548" x="156.630531" y="278.166882" style="fill: #1f77b4; stroke: #1f77b4"/>
     <use xlink:href="#m533c2c8548" x="158.80942" y="278.668027" style="fill: #1f77b4; stroke: #1f77b4"/>
     <use xlink:href="#m533c2c8548" x="160.98831" y="279.125594" style="fill: #1f77b4; stroke: #1f77b4"/>
     <use xlink:href="#m533c2c8548" x="163.1672" y="279.539583" style="fill: #1f77b4; stroke: #1f77b4"/>
     <use xlink:href="#m533c2c8548" x="165.346089" y="279.909994" style="fill: #1f77b4; stroke: #1f77b4"/>
     <use xlink:href="#m533c2c8548" x="167.524979" y="280.236827" style="fill: #1f77b4; stroke: #1f77b4"/>
     <use xlink:href="#m533c2c8548" x="169.703868" y="280.520083" style="fill: #1f77b4; stroke: #1f77b4"/>
     <use xlink:href="#m533c2c8548" x="171.882758" y="280.759761" style="fill: #1f77b4; stroke: #1f77b4"/>
     <use xlink:href="#m533c2c8548" x="174.061647" y="280.955861" style="fill: #1f77b4; stroke: #1f77b4"/>
     <use xlink:href="#m533c2c8548" x="176.240537" y="281.108383" style="fill: #1f77b4; stroke: #1f77b4"/>
     <use xlink:href="#m533c2c8548" x="178.419426" y="281.217328" style="fill: #1f77b4; stroke: #1f77b4"/>
     <use xlink:href="#m533c2c8548" x="180.598316" y="281.282694" style="fill: #1f77b4; stroke: #1f77b4"/>
     <use xlink:href="#m533c2c8548" x="182.777206" y="281.304483" style="fill: #1f77b4; stroke: #1f77b4"/>
     <use xlink:href="#m533c2c8548" x="184.956095" y="281.282694" style="fill: #1f77b4; stroke: #1f77b4"/>
     <use xlink:href="#m533c2c8548" x="187.134985" y="281.217328" style="fill: #1f77b4; stroke: #1f77b4"/>
     <use xlink:href="#m533c2c8548" x="189.313874" y="281.108383" style="fill: #1f77b4; stroke: #1f77b4"/>
     <use xlink:href="#m533c2c8548" x="191.492764" y="280.955861" style="fill: #1f77b4; stroke: #1f77b4"/>
     <use xlink:href="#m533c2c8548" x="193.671653" y="280.759761" style="fill: #1f77b4; stroke: #1f77b4"/>
     <use xlink:href="#m533c2c8548" x="195.850543" y="280.520083" style="fill: #1f77b4; stroke: #1f77b4"/>
     <use xlink:href="#m533c2c8548" x="198.029433" y="280.236827" style="fill: #1f77b4; stroke: #1f77b4"/>
     <use xlink:href="#m533c2c8548" x="200.208322" y="279.909994" style="fill: #1f77b4; stroke: #1f77b4"/>
     <use xlink:href="#m533c2c8548" x="202.387212" y="279.539583" style="fill: #1f77b4; stroke: #1f77b4"/>
     <use xlink:href="#m533c2c8548" x="204.566101" y="279.125594" style="fill: #1f77b4; stroke: #1f77b4"/>
     <use xlink:href="#m533c2c8548" x="206.744991" y="278.668027" style="fill: #1f77b4; stroke: #1f77b4"/>
     <use xlink:href="#m533c2c8548" x="208.92388" y="278.166882" style="fill: #1f77b4; stroke: #1f77b4"/>
     <use xlink:href="#m533c2c8548" x="211.10277" y="277.62216" style="fill: #1f77b4; stroke: #1f77b4"/>
     <use xlink:href="#m533c2c8548" x="213.28166" y="277.03386" style="fill: #1f77b4; stroke: #1f77b4"/>
     <use xlink:href="#m533c2c8548" x="215.460549" y="276.401982" style="fill: #1f77b4; stroke: #1f77b4"/>
     <use xlink:href="#m533c2c8548" x="217.639439" y="275.726526" style="fill: #1f77b4; stroke: #1f77b4"/>
     <use xlink:href="#m533c2c8548" x="219.818328" y="275.007492" style="fill: #1f77b4; stroke: #1f77b4"/>
     <use xlink:href="#m533c2c8548" x="221.997218" y="274.244881" style="fill: #1f77b4; stroke: #1f77b4"/>
     <use xlink:href="#m533c2c8548" x="224.176107" y="273.438692" style="fill: #1f77b4; stroke: #1f77b4"/>
     <use xlink:href="#m533c2c8548" x="226.354997" y="272.588925" style="fill: #1f77b4; stroke: #1f77b4"/>
     <use xlink:href="#m533c2c8548" x="228.533887" y="271.69558" style="fill: #1f77b4; stroke: #1f77b4"/>
     <use xlink:href="#m533c2c8548" x="230.712776" y="270.758658" style="fill: #1f77b4; stroke: #1f77b4"/>
     <use xlink:href="#m533c2c8548" x="232.891666" y="269.778157" style="fill: #1f77b4; stroke: #1f77b4"/>
     <use xlink:href="#m533c2c8548" x="235.070555" y="268.754079" style="fill: #1f77b4; stroke: #1f77b4"/>
     <use xlink:href="#m533c2c8548" x="237.249445" y="267.686423" style="fill: #1f77b4; stroke: #1f77b4"/>
     <use xlink:href="#m533c2c8548" x="239.428334" y="266.57519" style="fill: #1f77b4; stroke: #1f77b4"/>
     <use xlink:href="#m533c2c8548" x="241.607224" y="265.420378" style="fill: #1f77b4; stroke: #1f77b4"/>
     <use xlink:href="#m533c2c8548" x="243.786113" y="264.221989" style="fill: #1f77b4; stroke: #1f77b4"/>
     <use xlink:href="#m533c2c8548" x="245.965003" y="262.980022" style="fill: #1f77b4; stroke: #1f77b4"/>
     <use xlink:href="#m533c2c8548" x="248.143893" y="261.694477" style="fill: #1f77b4; stroke: #1f77b4"/>
     <use xlink:href="#m533c2c8548" x="250.322782" y="260.365354" style="fill: #1f77b4; stroke: #1f77b4"/>
     <use xlink:href="#m533c2c8548" x="252.501672" y="258.992654" style="fill: #1f77b4; stroke: #1f77b4"/>
     <use xlink:href="#m533c2c8548" x="254.680561" y="257.576376" style="fill: #1f77b4; stroke: #1f77b4"/>
     <use xlink:href="#m533c2c8548" x="256.859451" y="256.11652" style="fill: #1f77b4; stroke: #1f77b4"/>
     <use xlink:href="#m533c2c8548" x="259.03834" y="254.613086" style="fill: #1f77b4; stroke: #1f77b4"/>
     <use xlink:href="#m533c2c8548" x="261.21723" y="253.066074" style="fill: #1f77b4; stroke: #1f77b4"/>
     <use xlink:href="#m533c2c8548" x="263.39612" y="251.475485" style="fill: #1f77b4; stroke: #1f77b4"/>
     <use xlink:href="#m533c2c8548" x="265.575009" y="249.841318" style="fill: #1f77b4; stroke: #1f77b4"/>
     <use xlink:href="#m533c2c8548" x="267.753899" y="248.163573" style="fill: #1f77b4; stroke: #1f77b4"/>
     <use xlink:href="#m533c2c8548" x="269.932788" y="246.44225" style="fill: #1f77b4; stroke: #1f77b4"/>
     <use xlink:href="#m533c2c8548" x="272.111678" y="244.67735" style="fill: #1f77b4; stroke: #1f77b4"/>
     <use xlink:href="#m533c2c8548" x="274.290567" y="242.868871" style="fill: #1f77b4; stroke: #1f77b4"/>
     <use xlink:href="#m533c2c8548" x="276.469457" y="241.016815" style="fill: #1f77b4; stroke: #1f77b4"/>
     <use xlink:href="#m533c2c8548" x="278.648347" y="239.121181" style="fill: #1f77b4; stroke: #1f77b4"/>
     <use xlink:href="#m533c2c8548" x="280.827236" y="237.181969" style="fill: #1f77b4; stroke: #1f77b4"/>
     <use xlink:href="#m533c2c8548" x="283.006126" y="235.19918" style="fill: #1f77b4; stroke: #1f77b4"/>
     <use xlink:href="#m533c2c8548" x="285.185015" y="233.172813" style="fill: #1f77b4; stroke: #1f77b4"/>
     <use xlink:href="#m533c2c8548" x="287.363905" y="231.102868" style="fill: #1f77b4; stroke: #1f77b4"/>
     <use xlink:href="#m533c2c8548" x="289.542794" y="228.989345" style="fill: #1f77b4; stroke: #1f77b4"/>
     <use xlink:href="#m533c2c8548" x="291.721684" y="226.832244" style="fill: #1f77b4; stroke: #1f77b4"/>
     <use xlink:href="#m533c2c8548" x="293.900574" y="224.631566" style="fill: #1f77b4; stroke: #1f77b4"/>
     <use xlink:href="#m533c2c8548" x="296.079463" y="222.387309" style="fill: #1f77b4; stroke: #1f77b4"/>
     <use xlink:href="#m533c2c8548" x="298.258353" y="220.099475" style="fill: #1f77b4; stroke: #1f77b4"/>
     <use xlink:href="#m533c2c8548" x="300.437242" y="217.768063" style="fill: #1f77b4; stroke: #1f77b4"/>
     <use xlink:href="#m533c2c8548" x="302.616132" y="215.393074" style="fill: #1f77b4; stroke: #1f77b4"/>
     <use xlink:href="#m533c2c8548" x="304.795021" y="212.974506" style="fill: #1f77b4; stroke: #1f77b4"/>
     <use xlink:href="#m533c2c8548" x="306.973911" y="210.512361" style="fill: #1f77b4; stroke: #1f77b4"/>
     <use xlink:href="#m533c2c8548" x="309.1528" y="208.006638" style="fill: #1f77b4; stroke: #1f77b4"/>
     <use xlink:href="#m533c2c8548" x="311.33169" y="205.457337" style="fill: #1f77b4; stroke: #1f77b4"/>
     <use xlink:href="#m533c2c8548" x="313.51058" y="202.864459" style="fill: #1f77b4; stroke: #1f77b4"/>
     <use xlink:href="#m533c2c8548" x="315.689469" y="200.228002" style="fill: #1f77b4; stroke: #1f77b4"/>
     <use xlink:href="#m533c2c8548" x="317.868359" y="197.547968" style="fill: #1f77b4; stroke: #1f77b4"/>
     <use xlink:href="#m533c2c8548" x="320.047248" y="194.824356" style="fill: #1f77b4; stroke: #1f77b4"/>
     <use xlink:href="#m533c2c8548" x="322.226138" y="192.057167" style="fill: #1f77b4; stroke: #1f77b4"/>
     <use xlink:href="#m533c2c8548" x="324.405027" y="189.246399" style="fill: #1f77b4; stroke: #1f77b4"/>
     <use xlink:href="#m533c2c8548" x="326.583917" y="186.392054" style="fill: #1f77b4; stroke: #1f77b4"/>
     <use xlink:href="#m533c2c8548" x="328.762807" y="183.494131" style="fill: #1f77b4; stroke: #1f77b4"/>
     <use xlink:href="#m533c2c8548" x="330.941696" y="180.55263" style="fill: #1f77b4; stroke: #1f77b4"/>
     <use xlink:href="#m533c2c8548" x="333.120586" y="177.567551" style="fill: #1f77b4; stroke: #1f77b4"/>
     <use xlink:href="#m533c2c8548" x="335.299475" y="174.538894" style="fill: #1f77b4; stroke: #1f77b4"/>
     <use xlink:href="#m533c2c8548" x="337.478365" y="171.46666" style="fill: #1f77b4; stroke: #1f77b4"/>
     <use xlink:href="#m533c2c8548" x="339.657254" y="168.350848" style="fill: #1f77b4; stroke: #1f77b4"/>
     <use xlink:href="#m533c2c8548" x="341.836144" y="165.191458" style="fill: #1f77b4; stroke: #1f77b4"/>
     <use xlink:href="#m533c2c8548" x="344.015034" y="161.988491" style="fill: #1f77b4; stroke: #1f77b4"/>
     <use xlink:href="#m533c2c8548" x="346.193923" y="158.741945" style="fill: #1f77b4; stroke: #1f77b4"/>
     <use xlink:href="#m533c2c8548" x="348.372813" y="155.451822" style="fill: #1f77b4; stroke: #1f77b4"/>
     <use xlink:href="#m533c2c8548" x="350.551702" y="152.118121" style="fill: #1f77b4; stroke: #1f77b4"/>
     <use xlink:href="#m533c2c8548" x="352.730592" y="148.740842" style="fill: #1f77b4; stroke: #1f77b4"/>
     <use xlink:href="#m533c2c8548" x="354.909481" y="145.319985" style="fill: #1f77b4; stroke: #1f77b4"/>
     <use xlink:href="#m533c2c8548" x="357.088371" y="141.855551" style="fill: #1f77b4; stroke: #1f77b4"/>
     <use xlink:href="#m533c2c8548" x="359.267261" y="138.347539" style="fill: #1f77b4; stroke: #1f77b4"/>
     <use xlink:href="#m533c2c8548" x="361.44615" y="134.795949" style="fill: #1f77b4; stroke: #1f77b4"/>
     <use xlink:href="#m533c2c8548" x="363.62504" y="131.200781" style="fill: #1f77b4; stroke: #1f77b4"/>
     <use xlink:href="#m533c2c8548" x="365.803929" y="127.562035" style="fill: #1f77b4; stroke: #1f77b4"/>
     <use xlink:href="#m533c2c8548" x="367.982819" y="123.879712" style="fill: #1f77b4; stroke: #1f77b4"/>
     <use xlink:href="#m533c2c8548" x="370.161708" y="120.153811" style="fill: #1f77b4; stroke: #1f77b4"/>
     <use xlink:href="#m533c2c8548" x="372.340598" y="116.384332" style="fill: #1f77b4; stroke: #1f77b4"/>
     <use xlink:href="#m533c2c8548" x="374.519487" y="112.571275" style="fill: #1f77b4; stroke: #1f77b4"/>
     <use xlink:href="#m533c2c8548" x="376.698377" y="108.714641" style="fill: #1f77b4; stroke: #1f77b4"/>
     <use xlink:href="#m533c2c8548" x="378.877267" y="104.814428" style="fill: #1f77b4; stroke: #1f77b4"/>
     <use xlink:href="#m533c2c8548" x="381.056156" y="100.870638" style="fill: #1f77b4; stroke: #1f77b4"/>
     <use xlink:href="#m533c2c8548" x="383.235046" y="96.88327" style="fill: #1f77b4; stroke: #1f77b4"/>
     <use xlink:href="#m533c2c8548" x="385.413935" y="92.852325" style="fill: #1f77b4; stroke: #1f77b4"/>
     <use xlink:href="#m533c2c8548" x="387.592825" y="88.777801" style="fill: #1f77b4; stroke: #1f77b4"/>
     <use xlink:href="#m533c2c8548" x="389.771714" y="84.6597" style="fill: #1f77b4; stroke: #1f77b4"/>
     <use xlink:href="#m533c2c8548" x="391.950604" y="80.498021" style="fill: #1f77b4; stroke: #1f77b4"/>
     <use xlink:href="#m533c2c8548" x="394.129494" y="76.292764" style="fill: #1f77b4; stroke: #1f77b4"/>
     <use xlink:href="#m533c2c8548" x="396.308383" y="72.043929" style="fill: #1f77b4; stroke: #1f77b4"/>
     <use xlink:href="#m533c2c8548" x="398.487273" y="67.751517" style="fill: #1f77b4; stroke: #1f77b4"/>
    </g>
   </g>
   <g id="matplotlib.axis_1">
    <g id="xtick_1">
     <g id="line2d_1">
      <path d="M 95.621623 291.982132 
L 95.621623 57.073868 
" clip-path="url(#p8d1fc11f50)" style="fill: none; stroke: #b0b0b0; stroke-width: 0.8; stroke-linecap: square"/>
     </g>
     <g id="line2d_2">
      <defs>
       <path id="mf5b23c4598" d="M 0 0 
L 0 3.5 
" style="stroke: #000000; stroke-width: 0.8"/>
      </defs>
      <g>
       <use xlink:href="#mf5b23c4598" x="95.621623" y="291.982132" style="stroke: #000000; stroke-width: 0.8"/>
      </g>
     </g>
     <g id="text_1">
      <!-- −0.4 -->
      <g transform="translate(83.480217 306.580569) scale(0.1 -0.1)">
       <defs>
        <path id="DejaVuSans-2212" d="M 678 2272 
L 4684 2272 
L 4684 1741 
L 678 1741 
L 678 2272 
z
" transform="scale(0.015625)"/>
        <path id="DejaVuSans-30" d="M 2034 4250 
Q 1547 4250 1301 3770 
Q 1056 3291 1056 2328 
Q 1056 1369 1301 889 
Q 1547 409 2034 409 
Q 2525 409 2770 889 
Q 3016 1369 3016 2328 
Q 3016 3291 2770 3770 
Q 2525 4250 2034 4250 
z
M 2034 4750 
Q 2819 4750 3233 4129 
Q 3647 3509 3647 2328 
Q 3647 1150 3233 529 
Q 2819 -91 2034 -91 
Q 1250 -91 836 529 
Q 422 1150 422 2328 
Q 422 3509 836 4129 
Q 1250 4750 2034 4750 
z
" transform="scale(0.015625)"/>
        <path id="DejaVuSans-2e" d="M 684 794 
L 1344 794 
L 1344 0 
L 684 0 
L 684 794 
z
" transform="scale(0.015625)"/>
        <path id="DejaVuSans-34" d="M 2419 4116 
L 825 1625 
L 2419 1625 
L 2419 4116 
z
M 2253 4666 
L 3047 4666 
L 3047 1625 
L 3713 1625 
L 3713 1100 
L 3047 1100 
L 3047 0 
L 2419 0 
L 2419 1100 
L 313 1100 
L 313 1709 
L 2253 4666 
z
" transform="scale(0.015625)"/>
       </defs>
       <use xlink:href="#DejaVuSans-2212"/>
       <use xlink:href="#DejaVuSans-30" x="83.789062"/>
       <use xlink:href="#DejaVuSans-2e" x="147.412109"/>
       <use xlink:href="#DejaVuSans-34" x="179.199219"/>
      </g>
     </g>
    </g>
    <g id="xtick_2">
     <g id="line2d_3">
      <path d="M 139.199414 291.982132 
L 139.199414 57.073868 
" clip-path="url(#p8d1fc11f50)" style="fill: none; stroke: #b0b0b0; stroke-width: 0.8; stroke-linecap: square"/>
     </g>
     <g id="line2d_4">
      <g>
       <use xlink:href="#mf5b23c4598" x="139.199414" y="291.982132" style="stroke: #000000; stroke-width: 0.8"/>
      </g>
     </g>
     <g id="text_2">
      <!-- −0.2 -->
      <g transform="translate(127.058008 306.580569) scale(0.1 -0.1)">
       <defs>
        <path id="DejaVuSans-32" d="M 1228 531 
L 3431 531 
L 3431 0 
L 469 0 
L 469 531 
Q 828 903 1448 1529 
Q 2069 2156 2228 2338 
Q 2531 2678 2651 2914 
Q 2772 3150 2772 3378 
Q 2772 3750 2511 3984 
Q 2250 4219 1831 4219 
Q 1534 4219 1204 4116 
Q 875 4013 500 3803 
L 500 4441 
Q 881 4594 1212 4672 
Q 1544 4750 1819 4750 
Q 2544 4750 2975 4387 
Q 3406 4025 3406 3419 
Q 3406 3131 3298 2873 
Q 3191 2616 2906 2266 
Q 2828 2175 2409 1742 
Q 1991 1309 1228 531 
z
" transform="scale(0.015625)"/>
       </defs>
       <use xlink:href="#DejaVuSans-2212"/>
       <use xlink:href="#DejaVuSans-30" x="83.789062"/>
       <use xlink:href="#DejaVuSans-2e" x="147.412109"/>
       <use xlink:href="#DejaVuSans-32" x="179.199219"/>
      </g>
     </g>
    </g>
    <g id="xtick_3">
     <g id="line2d_5">
      <path d="M 182.777206 291.982132 
L 182.777206 57.073868 
" clip-path="url(#p8d1fc11f50)" style="fill: none; stroke: #b0b0b0; stroke-width: 0.8; stroke-linecap: square"/>
     </g>
     <g id="line2d_6">
      <g>
       <use xlink:href="#mf5b23c4598" x="182.777206" y="291.982132" style="stroke: #000000; stroke-width: 0.8"/>
      </g>
     </g>
     <g id="text_3">
      <!-- 0.0 -->
      <g transform="translate(174.825643 306.580569) scale(0.1 -0.1)">
       <use xlink:href="#DejaVuSans-30"/>
       <use xlink:href="#DejaVuSans-2e" x="63.623047"/>
       <use xlink:href="#DejaVuSans-30" x="95.410156"/>
      </g>
     </g>
    </g>
    <g id="xtick_4">
     <g id="line2d_7">
      <path d="M 226.354997 291.982132 
L 226.354997 57.073868 
" clip-path="url(#p8d1fc11f50)" style="fill: none; stroke: #b0b0b0; stroke-width: 0.8; stroke-linecap: square"/>
     </g>
     <g id="line2d_8">
      <g>
       <use xlink:href="#mf5b23c4598" x="226.354997" y="291.982132" style="stroke: #000000; stroke-width: 0.8"/>
      </g>
     </g>
     <g id="text_4">
      <!-- 0.2 -->
      <g transform="translate(218.403434 306.580569) scale(0.1 -0.1)">
       <use xlink:href="#DejaVuSans-30"/>
       <use xlink:href="#DejaVuSans-2e" x="63.623047"/>
       <use xlink:href="#DejaVuSans-32" x="95.410156"/>
      </g>
     </g>
    </g>
    <g id="xtick_5">
     <g id="line2d_9">
      <path d="M 269.932788 291.982132 
L 269.932788 57.073868 
" clip-path="url(#p8d1fc11f50)" style="fill: none; stroke: #b0b0b0; stroke-width: 0.8; stroke-linecap: square"/>
     </g>
     <g id="line2d_10">
      <g>
       <use xlink:href="#mf5b23c4598" x="269.932788" y="291.982132" style="stroke: #000000; stroke-width: 0.8"/>
      </g>
     </g>
     <g id="text_5">
      <!-- 0.4 -->
      <g transform="translate(261.981226 306.580569) scale(0.1 -0.1)">
       <use xlink:href="#DejaVuSans-30"/>
       <use xlink:href="#DejaVuSans-2e" x="63.623047"/>
       <use xlink:href="#DejaVuSans-34" x="95.410156"/>
      </g>
     </g>
    </g>
    <g id="xtick_6">
     <g id="line2d_11">
      <path d="M 313.51058 291.982132 
L 313.51058 57.073868 
" clip-path="url(#p8d1fc11f50)" style="fill: none; stroke: #b0b0b0; stroke-width: 0.8; stroke-linecap: square"/>
     </g>
     <g id="line2d_12">
      <g>
       <use xlink:href="#mf5b23c4598" x="313.51058" y="291.982132" style="stroke: #000000; stroke-width: 0.8"/>
      </g>
     </g>
     <g id="text_6">
      <!-- 0.6 -->
      <g transform="translate(305.559017 306.580569) scale(0.1 -0.1)">
       <defs>
        <path id="DejaVuSans-36" d="M 2113 2584 
Q 1688 2584 1439 2293 
Q 1191 2003 1191 1497 
Q 1191 994 1439 701 
Q 1688 409 2113 409 
Q 2538 409 2786 701 
Q 3034 994 3034 1497 
Q 3034 2003 2786 2293 
Q 2538 2584 2113 2584 
z
M 3366 4563 
L 3366 3988 
Q 3128 4100 2886 4159 
Q 2644 4219 2406 4219 
Q 1781 4219 1451 3797 
Q 1122 3375 1075 2522 
Q 1259 2794 1537 2939 
Q 1816 3084 2150 3084 
Q 2853 3084 3261 2657 
Q 3669 2231 3669 1497 
Q 3669 778 3244 343 
Q 2819 -91 2113 -91 
Q 1303 -91 875 529 
Q 447 1150 447 2328 
Q 447 3434 972 4092 
Q 1497 4750 2381 4750 
Q 2619 4750 2861 4703 
Q 3103 4656 3366 4563 
z
" transform="scale(0.015625)"/>
       </defs>
       <use xlink:href="#DejaVuSans-30"/>
       <use xlink:href="#DejaVuSans-2e" x="63.623047"/>
       <use xlink:href="#DejaVuSans-36" x="95.410156"/>
      </g>
     </g>
    </g>
    <g id="xtick_7">
     <g id="line2d_13">
      <path d="M 357.088371 291.982132 
L 357.088371 57.073868 
" clip-path="url(#p8d1fc11f50)" style="fill: none; stroke: #b0b0b0; stroke-width: 0.8; stroke-linecap: square"/>
     </g>
     <g id="line2d_14">
      <g>
       <use xlink:href="#mf5b23c4598" x="357.088371" y="291.982132" style="stroke: #000000; stroke-width: 0.8"/>
      </g>
     </g>
     <g id="text_7">
      <!-- 0.8 -->
      <g transform="translate(349.136808 306.580569) scale(0.1 -0.1)">
       <defs>
        <path id="DejaVuSans-38" d="M 2034 2216 
Q 1584 2216 1326 1975 
Q 1069 1734 1069 1313 
Q 1069 891 1326 650 
Q 1584 409 2034 409 
Q 2484 409 2743 651 
Q 3003 894 3003 1313 
Q 3003 1734 2745 1975 
Q 2488 2216 2034 2216 
z
M 1403 2484 
Q 997 2584 770 2862 
Q 544 3141 544 3541 
Q 544 4100 942 4425 
Q 1341 4750 2034 4750 
Q 2731 4750 3128 4425 
Q 3525 4100 3525 3541 
Q 3525 3141 3298 2862 
Q 3072 2584 2669 2484 
Q 3125 2378 3379 2068 
Q 3634 1759 3634 1313 
Q 3634 634 3220 271 
Q 2806 -91 2034 -91 
Q 1263 -91 848 271 
Q 434 634 434 1313 
Q 434 1759 690 2068 
Q 947 2378 1403 2484 
z
M 1172 3481 
Q 1172 3119 1398 2916 
Q 1625 2713 2034 2713 
Q 2441 2713 2670 2916 
Q 2900 3119 2900 3481 
Q 2900 3844 2670 4047 
Q 2441 4250 2034 4250 
Q 1625 4250 1398 4047 
Q 1172 3844 1172 3481 
z
" transform="scale(0.015625)"/>
       </defs>
       <use xlink:href="#DejaVuSans-30"/>
       <use xlink:href="#DejaVuSans-2e" x="63.623047"/>
       <use xlink:href="#DejaVuSans-38" x="95.410156"/>
      </g>
     </g>
    </g>
    <g id="xtick_8">
     <g id="line2d_15">
      <path d="M 400.666162 291.982132 
L 400.666162 57.073868 
" clip-path="url(#p8d1fc11f50)" style="fill: none; stroke: #b0b0b0; stroke-width: 0.8; stroke-linecap: square"/>
     </g>
     <g id="line2d_16">
      <g>
       <use xlink:href="#mf5b23c4598" x="400.666162" y="291.982132" style="stroke: #000000; stroke-width: 0.8"/>
      </g>
     </g>
     <g id="text_8">
      <!-- 1.0 -->
      <g transform="translate(392.7146 306.580569) scale(0.1 -0.1)">
       <defs>
        <path id="DejaVuSans-31" d="M 794 531 
L 1825 531 
L 1825 4091 
L 703 3866 
L 703 4441 
L 1819 4666 
L 2450 4666 
L 2450 531 
L 3481 531 
L 3481 0 
L 794 0 
L 794 531 
z
" transform="scale(0.015625)"/>
       </defs>
       <use xlink:href="#DejaVuSans-31"/>
       <use xlink:href="#DejaVuSans-2e" x="63.623047"/>
       <use xlink:href="#DejaVuSans-30" x="95.410156"/>
      </g>
     </g>
    </g>
    <g id="text_9">
     <!-- x -->
     <g transform="translate(233.200625 320.258694) scale(0.1 -0.1)">
      <defs>
       <path id="DejaVuSans-78" d="M 3513 3500 
L 2247 1797 
L 3578 0 
L 2900 0 
L 1881 1375 
L 863 0 
L 184 0 
L 1544 1831 
L 300 3500 
L 978 3500 
L 1906 2253 
L 2834 3500 
L 3513 3500 
z
" transform="scale(0.015625)"/>
      </defs>
      <use xlink:href="#DejaVuSans-78"/>
     </g>
    </g>
   </g>
   <g id="matplotlib.axis_2">
    <g id="ytick_1">
     <g id="line2d_17">
      <path d="M 57.6 281.304483 
L 414.72 281.304483 
" clip-path="url(#p8d1fc11f50)" style="fill: none; stroke: #b0b0b0; stroke-width: 0.8; stroke-linecap: square"/>
     </g>
     <g id="line2d_18">
      <defs>
       <path id="m735379d882" d="M 0 0 
L -3.5 0 
" style="stroke: #000000; stroke-width: 0.8"/>
      </defs>
      <g>
       <use xlink:href="#m735379d882" x="57.6" y="281.304483" style="stroke: #000000; stroke-width: 0.8"/>
      </g>
     </g>
     <g id="text_10">
      <!-- 0.0 -->
      <g transform="translate(34.696875 285.103702) scale(0.1 -0.1)">
       <use xlink:href="#DejaVuSans-30"/>
       <use xlink:href="#DejaVuSans-2e" x="63.623047"/>
       <use xlink:href="#DejaVuSans-30" x="95.410156"/>
      </g>
     </g>
    </g>
    <g id="ytick_2">
     <g id="line2d_19">
      <path d="M 57.6 237.726692 
L 414.72 237.726692 
" clip-path="url(#p8d1fc11f50)" style="fill: none; stroke: #b0b0b0; stroke-width: 0.8; stroke-linecap: square"/>
     </g>
     <g id="line2d_20">
      <g>
       <use xlink:href="#m735379d882" x="57.6" y="237.726692" style="stroke: #000000; stroke-width: 0.8"/>
      </g>
     </g>
     <g id="text_11">
      <!-- 0.2 -->
      <g transform="translate(34.696875 241.525911) scale(0.1 -0.1)">
       <use xlink:href="#DejaVuSans-30"/>
       <use xlink:href="#DejaVuSans-2e" x="63.623047"/>
       <use xlink:href="#DejaVuSans-32" x="95.410156"/>
      </g>
     </g>
    </g>
    <g id="ytick_3">
     <g id="line2d_21">
      <path d="M 57.6 194.148901 
L 414.72 194.148901 
" clip-path="url(#p8d1fc11f50)" style="fill: none; stroke: #b0b0b0; stroke-width: 0.8; stroke-linecap: square"/>
     </g>
     <g id="line2d_22">
      <g>
       <use xlink:href="#m735379d882" x="57.6" y="194.148901" style="stroke: #000000; stroke-width: 0.8"/>
      </g>
     </g>
     <g id="text_12">
      <!-- 0.4 -->
      <g transform="translate(34.696875 197.948119) scale(0.1 -0.1)">
       <use xlink:href="#DejaVuSans-30"/>
       <use xlink:href="#DejaVuSans-2e" x="63.623047"/>
       <use xlink:href="#DejaVuSans-34" x="95.410156"/>
      </g>
     </g>
    </g>
    <g id="ytick_4">
     <g id="line2d_23">
      <path d="M 57.6 150.571109 
L 414.72 150.571109 
" clip-path="url(#p8d1fc11f50)" style="fill: none; stroke: #b0b0b0; stroke-width: 0.8; stroke-linecap: square"/>
     </g>
     <g id="line2d_24">
      <g>
       <use xlink:href="#m735379d882" x="57.6" y="150.571109" style="stroke: #000000; stroke-width: 0.8"/>
      </g>
     </g>
     <g id="text_13">
      <!-- 0.6 -->
      <g transform="translate(34.696875 154.370328) scale(0.1 -0.1)">
       <use xlink:href="#DejaVuSans-30"/>
       <use xlink:href="#DejaVuSans-2e" x="63.623047"/>
       <use xlink:href="#DejaVuSans-36" x="95.410156"/>
      </g>
     </g>
    </g>
    <g id="ytick_5">
     <g id="line2d_25">
      <path d="M 57.6 106.993318 
L 414.72 106.993318 
" clip-path="url(#p8d1fc11f50)" style="fill: none; stroke: #b0b0b0; stroke-width: 0.8; stroke-linecap: square"/>
     </g>
     <g id="line2d_26">
      <g>
       <use xlink:href="#m735379d882" x="57.6" y="106.993318" style="stroke: #000000; stroke-width: 0.8"/>
      </g>
     </g>
     <g id="text_14">
      <!-- 0.8 -->
      <g transform="translate(34.696875 110.792537) scale(0.1 -0.1)">
       <use xlink:href="#DejaVuSans-30"/>
       <use xlink:href="#DejaVuSans-2e" x="63.623047"/>
       <use xlink:href="#DejaVuSans-38" x="95.410156"/>
      </g>
     </g>
    </g>
    <g id="ytick_6">
     <g id="line2d_27">
      <path d="M 57.6 63.415527 
L 414.72 63.415527 
" clip-path="url(#p8d1fc11f50)" style="fill: none; stroke: #b0b0b0; stroke-width: 0.8; stroke-linecap: square"/>
     </g>
     <g id="line2d_28">
      <g>
       <use xlink:href="#m735379d882" x="57.6" y="63.415527" style="stroke: #000000; stroke-width: 0.8"/>
      </g>
     </g>
     <g id="text_15">
      <!-- 1.0 -->
      <g transform="translate(34.696875 67.214745) scale(0.1 -0.1)">
       <use xlink:href="#DejaVuSans-31"/>
       <use xlink:href="#DejaVuSans-2e" x="63.623047"/>
       <use xlink:href="#DejaVuSans-30" x="95.410156"/>
      </g>
     </g>
    </g>
    <g id="text_16">
     <!-- y -->
     <g transform="translate(28.617188 177.487375) rotate(-90) scale(0.1 -0.1)">
      <defs>
       <path id="DejaVuSans-79" d="M 2059 -325 
Q 1816 -950 1584 -1140 
Q 1353 -1331 966 -1331 
L 506 -1331 
L 506 -850 
L 844 -850 
Q 1081 -850 1212 -737 
Q 1344 -625 1503 -206 
L 1606 56 
L 191 3500 
L 800 3500 
L 1894 763 
L 2988 3500 
L 3597 3500 
L 2059 -325 
z
" transform="scale(0.015625)"/>
      </defs>
      <use xlink:href="#DejaVuSans-79"/>
     </g>
    </g>
   </g>
   <g id="patch_3">
    <path d="M 57.6 291.982132 
L 57.6 57.073868 
" style="fill: none; stroke: #000000; stroke-width: 0.8; stroke-linejoin: miter; stroke-linecap: square"/>
   </g>
   <g id="patch_4">
    <path d="M 414.72 291.982132 
L 414.72 57.073868 
" style="fill: none; stroke: #000000; stroke-width: 0.8; stroke-linejoin: miter; stroke-linecap: square"/>
   </g>
   <g id="patch_5">
    <path d="M 57.6 291.982132 
L 414.72 291.982132 
" style="fill: none; stroke: #000000; stroke-width: 0.8; stroke-linejoin: miter; stroke-linecap: square"/>
   </g>
   <g id="patch_6">
    <path d="M 57.6 57.073868 
L 414.72 57.073868 
" style="fill: none; stroke: #000000; stroke-width: 0.8; stroke-linejoin: miter; stroke-linecap: square"/>
   </g>
   <g id="legend_1">
    <g id="patch_7">
     <path d="M 64.6 79.751993 
L 113.842187 79.751993 
Q 115.842187 79.751993 115.842187 77.751993 
L 115.842187 64.073868 
Q 115.842187 62.073868 113.842187 62.073868 
L 64.6 62.073868 
Q 62.6 62.073868 62.6 64.073868 
L 62.6 77.751993 
Q 62.6 79.751993 64.6 79.751993 
z
" style="fill: #ffffff; opacity: 0.8; stroke: #cccccc; stroke-linejoin: miter"/>
    </g>
    <g id="PathCollection_2">
     <g>
      <use xlink:href="#m533c2c8548" x="76.6" y="71.047306" style="fill: #1f77b4; stroke: #1f77b4"/>
     </g>
    </g>
    <g id="text_17">
     <!-- f(x) -->
     <g transform="translate(94.6 73.672306) scale(0.1 -0.1)">
      <defs>
       <path id="DejaVuSans-66" d="M 2375 4863 
L 2375 4384 
L 1825 4384 
Q 1516 4384 1395 4259 
Q 1275 4134 1275 3809 
L 1275 3500 
L 2222 3500 
L 2222 3053 
L 1275 3053 
L 1275 0 
L 697 0 
L 697 3053 
L 147 3053 
L 147 3500 
L 697 3500 
L 697 3744 
Q 697 4328 969 4595 
Q 1241 4863 1831 4863 
L 2375 4863 
z
" transform="scale(0.015625)"/>
       <path id="DejaVuSans-28" d="M 1984 4856 
Q 1566 4138 1362 3434 
Q 1159 2731 1159 2009 
Q 1159 1288 1364 580 
Q 1569 -128 1984 -844 
L 1484 -844 
Q 1016 -109 783 600 
Q 550 1309 550 2009 
Q 550 2706 781 3412 
Q 1013 4119 1484 4856 
L 1984 4856 
z
" transform="scale(0.015625)"/>
       <path id="DejaVuSans-29" d="M 513 4856 
L 1013 4856 
Q 1481 4119 1714 3412 
Q 1947 2706 1947 2009 
Q 1947 1309 1714 600 
Q 1481 -109 1013 -844 
L 513 -844 
Q 928 -128 1133 580 
Q 1338 1288 1338 2009 
Q 1338 2731 1133 3434 
Q 928 4138 513 4856 
z
" transform="scale(0.015625)"/>
      </defs>
      <use xlink:href="#DejaVuSans-66"/>
      <use xlink:href="#DejaVuSans-28" x="35.205078"/>
      <use xlink:href="#DejaVuSans-78" x="74.21875"/>
      <use xlink:href="#DejaVuSans-29" x="133.398438"/>
     </g>
    </g>
   </g>
  </g>
 </g>
 <defs>
  <clipPath id="p8d1fc11f50">
   <rect x="57.6" y="57.073868" width="357.12" height="234.908263"/>
  </clipPath>
 </defs>
</svg>
